<svg width="33" height="36" viewBox="0 0 33 36" fill="none" xmlns="http://www.w3.org/2000/svg">
<path d="M8.25 12V10.5C8.25 8.11305 9.11919 5.82387 10.6664 4.13604C12.2135 2.44821 14.312 1.5 16.5 1.5C18.688 1.5 20.7865 2.44821 22.3336 4.13604C23.8808 5.82387 24.75 8.11305 24.75 10.5V12H27.5C27.8647 12 28.2144 12.158 28.4723 12.4393C28.7301 12.7206 28.875 13.1022 28.875 13.5V31.5C28.875 31.8978 28.7301 32.2794 28.4723 32.5607C28.2144 32.842 27.8647 33 27.5 33H5.5C5.13533 33 4.78559 32.842 4.52773 32.5607C4.26987 32.2794 4.125 31.8978 4.125 31.5V13.5C4.125 13.1022 4.26987 12.7206 4.52773 12.4393C4.78559 12.158 5.13533 12 5.5 12H8.25ZM26.125 15H6.875V30H26.125V15ZM15.125 23.598C14.6007 23.2678 14.191 22.7581 13.9593 22.148C13.7277 21.5378 13.687 20.8614 13.8437 20.2235C14.0004 19.5856 14.3456 19.0219 14.8259 18.6199C15.3062 18.2178 15.8946 17.9999 16.5 17.9999C17.1054 17.9999 17.6938 18.2178 18.1741 18.6199C18.6544 19.0219 18.9996 19.5856 19.1563 20.2235C19.313 20.8614 19.2723 21.5378 19.0407 22.148C18.809 22.7581 18.3993 23.2678 17.875 23.598V27H15.125V23.598ZM11 12H22V10.5C22 8.9087 21.4205 7.38258 20.3891 6.25736C19.3576 5.13214 17.9587 4.5 16.5 4.5C15.0413 4.5 13.6424 5.13214 12.6109 6.25736C11.5795 7.38258 11 8.9087 11 10.5V12Z" fill="white"/>
</svg>
