<svg width="31" height="20" viewBox="0 0 31 20" fill="none" xmlns="http://www.w3.org/2000/svg">
<path d="M17.05 11.6667H16.275V7.08333C16.275 6.85312 16.1016 6.66667 15.8875 6.66667H15.2297C15.0001 6.66667 14.7759 6.73958 14.585 6.87656L13.8425 7.40885C13.8001 7.43917 13.7637 7.47817 13.7354 7.52361C13.7071 7.56905 13.6874 7.62005 13.6774 7.67369C13.6674 7.72734 13.6673 7.78257 13.6772 7.83624C13.6871 7.8899 13.7067 7.94095 13.7349 7.98646L14.1651 8.67969C14.1933 8.72522 14.2295 8.76434 14.2718 8.7948C14.314 8.82526 14.3615 8.84646 14.4114 8.8572C14.4613 8.86794 14.5126 8.868 14.5625 8.85738C14.6124 8.84676 14.6599 8.82567 14.7022 8.79531L14.725 8.77917V11.6667H13.95C13.7359 11.6667 13.5625 11.8531 13.5625 12.0833V12.9167C13.5625 13.1469 13.7359 13.3333 13.95 13.3333H17.05C17.2641 13.3333 17.4375 13.1469 17.4375 12.9167V12.0833C17.4375 11.8531 17.2641 11.6667 17.05 11.6667ZM29.45 0H1.55C0.694109 0 0 0.746354 0 1.66667V18.3333C0 19.2536 0.694109 20 1.55 20H29.45C30.3059 20 31 19.2536 31 18.3333V1.66667C31 0.746354 30.3059 0 29.45 0ZM2.325 17.5V14.1667C4.03727 14.1667 5.425 15.6589 5.425 17.5H2.325ZM2.325 5.83333V2.5H5.425C5.425 4.34115 4.03727 5.83333 2.325 5.83333ZM15.5 15.8333C12.9318 15.8333 10.85 13.2214 10.85 10C10.85 6.77812 12.9318 4.16667 15.5 4.16667C18.0682 4.16667 20.15 6.77812 20.15 10C20.15 13.2224 18.0672 15.8333 15.5 15.8333ZM28.675 17.5H25.575C25.575 15.6589 26.9627 14.1667 28.675 14.1667V17.5ZM28.675 5.83333C26.9627 5.83333 25.575 4.34115 25.575 2.5H28.675V5.83333Z" fill="white"/>
</svg>
